<?xml version="1.0" standalone="no"?>
<!DOCTYPE svg PUBLIC "-//W3C//DTD SVG 20010904//EN"
 "http://www.w3.org/TR/2001/REC-SVG-20010904/DTD/svg10.dtd">
<svg version="1.0" xmlns="http://www.w3.org/2000/svg"
 width="788.000000pt" height="788.000000pt" viewBox="0 0 788.000000 788.000000"
 preserveAspectRatio="xMidYMid meet">
<metadata>
Created by potrace 1.14, written by Peter Selinger 2001-2017
</metadata>
<g transform="translate(0.000000,788.000000) scale(0.100000,-0.100000)"
fill="#000000" stroke="none">
<path d="M2885 7761 c-101 -37 -388 -184 -695 -356 -41 -23 -102 -57 -135 -75
-493 -270 -666 -388 -1045 -715 -184 -159 -591 -569 -608 -612 -12 -30 -73
-279 -92 -375 -9 -48 -9 -63 5 -91 23 -49 143 -182 391 -434 159 -160 241
-236 299 -274 44 -28 81 -53 83 -55 2 -1 -11 -34 -28 -74 -85 -194 -156 -423
-261 -850 -40 -162 -74 -297 -76 -299 -4 -6 -125 42 -278 109 -171 76 -215 90
-283 90 -63 0 -110 -22 -138 -65 -20 -31 -14 -80 19 -144 56 -110 246 -470
272 -516 72 -128 197 -336 235 -389 22 -32 40 -59 38 -60 -2 -2 -23 -10 -48
-19 -192 -72 -197 -174 -27 -500 97 -185 133 -244 263 -423 248 -344 399 -485
580 -543 38 -13 76 -25 84 -27 9 -3 -8 -17 -45 -37 -75 -41 -216 -134 -232
-155 -17 -21 -16 -63 2 -89 24 -34 148 -123 305 -218 165 -100 566 -302 715
-360 131 -51 302 -105 332 -105 115 0 502 175 698 316 l77 55 57 -12 c31 -6
72 -15 91 -19 413 -94 550 -99 785 -31 286 83 417 126 475 156 29 15 33 13
237 -96 114 -61 213 -115 218 -119 26 -19 234 -123 355 -177 184 -83 194 -84
316 -32 398 168 417 177 884 424 348 183 410 227 410 284 0 20 -9 41 -24 56
-20 20 -210 117 -325 167 l-34 14 69 18 c159 42 318 139 451 274 80 82 316
349 367 416 63 83 184 295 217 380 39 101 39 189 0 230 -56 60 -147 67 -331
26 -47 -10 -86 -17 -88 -15 -2 2 40 50 93 107 119 126 215 252 215 281 0 28
-60 263 -95 377 -45 143 -144 364 -221 492 l-73 122 52 56 c145 157 437 593
437 652 0 36 -39 97 -67 104 -22 6 -258 -16 -359 -33 l-31 -5 -7 179 c-10 255
-44 698 -62 801 -25 145 -71 290 -112 351 -65 97 -80 106 -704 410 -192 93
-170 60 -189 279 -21 255 -75 447 -142 510 -55 52 -576 245 -922 342 -99 28
-211 59 -250 70 -160 45 -409 102 -545 125 -237 40 -370 53 -885 90 -269 19
-517 39 -551 45 -73 12 -59 13 -119 -9z m1347 -1125 c77 -15 425 -133 568
-194 125 -52 294 -157 334 -206 49 -60 110 -157 150 -239 39 -80 78 -177 72
-177 -3 0 -47 64 -100 143 -103 154 -200 295 -215 314 -17 19 -219 93 -356
130 -71 19 -216 59 -321 89 -105 30 -200 54 -211 54 -18 0 -153 -100 -332
-247 -57 -47 -70 -53 -111 -53 -81 0 -282 -30 -373 -55 -137 -39 -214 -85
-357 -214 -53 -48 -90 -72 -127 -84 -28 -9 -55 -17 -58 -17 -9 0 66 106 189
267 95 124 106 135 181 177 293 165 507 238 900 311 93 17 83 17 167 1z m23
-216 c39 -11 169 -47 290 -80 121 -32 267 -77 325 -100 l105 -41 60 -90 c33
-49 88 -131 123 -182 92 -135 92 -133 40 -104 -393 218 -553 296 -689 333
-192 53 -719 -6 -1236 -140 -73 -19 -133 -33 -133 -31 0 2 23 17 50 35 112 72
232 103 498 130 57 5 113 15 125 22 12 6 60 42 107 80 47 37 119 95 160 128
41 33 81 60 90 60 8 0 47 -9 85 -20z m248 -410 c91 -28 278 -118 468 -222 85
-47 222 -120 304 -163 83 -43 177 -96 210 -118 96 -65 370 -274 495 -377 63
-53 205 -168 315 -255 229 -183 351 -296 405 -375 75 -109 76 -110 183 -110
81 0 315 18 457 35 43 5 44 5 20 -9 -38 -22 -403 -173 -510 -212 -396 -144
-1006 -296 -1245 -310 l-100 -6 -135 77 c-74 43 -180 107 -235 143 -101 67
-169 107 -238 141 l-38 18 103 89 c161 141 328 295 328 304 0 5 8 11 18 14 9
4 36 24 60 46 30 28 42 47 42 68 0 51 -32 68 -160 87 -176 25 -335 61 -398 90
-71 32 -99 51 -292 196 -85 64 -165 121 -177 128 -50 26 -103 3 -103 -45 0
-28 -16 -15 225 -194 271 -202 343 -233 660 -285 l40 -7 -76 -39 c-140 -70
-533 -195 -820 -259 -478 -109 -640 -114 -1153 -40 -110 17 -218 30 -239 30
-30 0 -50 10 -96 48 -32 26 -104 83 -161 127 -56 44 -128 101 -161 128 -36 29
-68 47 -84 47 -27 0 -75 -40 -75 -62 0 -7 -23 -67 -51 -133 -79 -189 -185
-463 -209 -545 -34 -116 -135 -398 -207 -580 -36 -91 -96 -256 -134 -369 -152
-452 -226 -617 -287 -650 -12 -6 -49 -3 -107 9 -50 10 -193 35 -320 56 -220
36 -231 39 -261 68 -34 34 -123 154 -171 231 -119 191 -429 772 -418 783 8 9
121 -32 235 -86 128 -60 353 -142 388 -142 43 0 59 26 66 110 6 63 108 499
150 640 8 25 26 88 41 140 35 121 115 336 171 463 65 148 131 251 200 315 143
133 164 147 469 297 501 246 579 279 925 393 454 149 844 236 1320 296 19 2
94 3 165 1 99 -2 146 -8 198 -25z m-2236 -226 c90 -15 160 -31 155 -34 -4 -4
-32 -16 -62 -28 -45 -17 -87 -22 -235 -26 -99 -4 -228 -9 -288 -12 l-107 -7
-29 -36 c-64 -82 -142 -207 -163 -263 -13 -33 -32 -67 -43 -74 -11 -8 -62 -42
-114 -75 -91 -59 -93 -60 -87 -32 15 61 237 488 292 560 20 27 33 33 91 42
177 28 370 23 590 -15z m-225 -209 c-23 -13 -86 -45 -140 -71 -53 -26 -132
-64 -175 -86 l-78 -39 15 28 c8 15 37 60 64 98 l50 70 123 11 c68 6 138 12
154 12 29 2 29 1 -13 -23z m4164 5 c139 -18 169 -25 253 -62 113 -50 156 -90
218 -201 54 -97 118 -282 134 -387 11 -70 10 -96 -5 -196 l-18 -114 -34 37
c-29 33 -33 45 -34 93 -1 165 -39 331 -108 470 l-47 95 -87 33 c-188 69 -265
84 -472 88 l-188 4 -71 52 c-39 29 -76 56 -81 60 -17 12 0 19 76 33 108 20
287 18 464 -5z m-20 -255 c49 -9 138 -32 197 -52 l108 -37 39 -80 c39 -80 72
-200 84 -303 4 -29 4 -53 1 -53 -3 0 -36 26 -74 58 -37 31 -114 93 -171 137
-57 44 -149 118 -204 165 -56 47 -124 103 -151 124 -28 22 -54 43 -59 48 -16
14 136 9 230 -7z m-1236 -818 c-8 -7 -51 -44 -95 -82 -44 -38 -101 -89 -126
-113 -109 -103 -463 -297 -673 -368 -107 -37 -247 -27 -391 27 -91 34 -492
244 -557 292 -69 51 -61 55 71 33 260 -42 551 -57 717 -37 272 34 803 162
1014 246 45 18 58 18 40 2z m2639 -154 c-76 -127 -183 -271 -278 -378 -39 -44
-98 -111 -132 -150 -128 -146 -350 -329 -469 -388 -58 -29 -74 -32 -150 -32
-73 1 -100 6 -190 39 -131 48 -256 110 -374 186 -50 33 -129 81 -176 107 l-85
47 50 9 c229 40 696 158 920 232 224 74 562 210 815 328 41 20 79 36 83 36 5
1 -2 -16 -14 -36z m-4678 -320 c104 -107 193 -249 336 -538 l79 -160 -13 -75
c-50 -277 -112 -545 -159 -686 -25 -74 -77 -168 -108 -193 -12 -10 -286 -61
-327 -61 -16 0 -69 108 -102 210 -205 625 -217 693 -156 867 38 108 74 180
199 398 126 221 174 295 190 295 3 0 31 -26 61 -57z m2187 -191 c90 -128 142
-216 244 -412 l54 -105 -23 -135 c-26 -151 -123 -548 -160 -655 -14 -38 -41
-106 -61 -149 l-36 -79 -121 6 c-137 7 -216 21 -244 45 -19 16 -86 239 -125
417 -32 145 -75 424 -77 496 -2 82 2 94 84 304 100 257 150 350 238 449 l43
49 48 -52 c26 -28 88 -109 136 -179z m2199 -205 c128 -220 207 -414 272 -668
l39 -150 -37 -48 c-53 -71 -297 -335 -345 -374 -22 -18 -85 -64 -138 -101
l-98 -67 0 170 c0 293 -76 737 -132 773 -22 14 -54 9 -73 -12 -20 -22 -19 -31
19 -205 49 -219 67 -367 67 -540 -1 -88 -7 -187 -14 -219 l-12 -59 -115 -64
c-269 -151 -730 -363 -730 -335 0 4 7 30 16 57 57 186 144 573 144 640 0 24 9
81 20 127 37 148 37 307 1 571 -40 292 -40 271 7 251 20 -9 93 -36 162 -61
122 -43 127 -44 226 -40 87 3 110 8 167 35 37 17 88 45 114 63 78 53 233 182
308 256 39 38 75 70 80 71 6 1 29 -31 52 -71z m-6248 -1217 c164 -28 320 -56
347 -63 47 -12 49 -13 57 -57 4 -25 28 -108 52 -186 34 -106 43 -149 38 -177
-6 -37 -6 -37 -42 -31 -72 13 -157 47 -324 131 -180 89 -211 109 -445 284
l-142 107 57 20 c32 11 69 21 81 21 13 1 158 -22 321 -49z m4971 -61 c0 -4
-37 -53 -82 -109 -46 -56 -93 -116 -104 -133 -12 -18 -71 -86 -130 -153 -60
-66 -127 -144 -149 -172 -22 -29 -42 -52 -45 -52 -4 0 -51 18 -106 39 -55 22
-132 47 -172 56 l-71 16 -143 -87 c-198 -121 -319 -197 -414 -261 l-81 -54
-104 35 c-216 72 -371 117 -391 114 -28 -4 -42 -29 -34 -61 5 -23 21 -30 169
-77 89 -28 206 -67 261 -85 54 -19 105 -31 115 -28 9 3 97 57 196 120 320 202
437 273 454 273 27 0 109 -27 233 -76 64 -26 123 -44 132 -41 8 3 30 30 49 60
29 45 224 277 233 277 3 0 -42 -102 -133 -304 -48 -106 -51 -109 -106 -140
-31 -17 -119 -68 -194 -114 -176 -106 -287 -160 -548 -265 -115 -47 -260 -108
-321 -135 -155 -69 -308 -121 -521 -177 l-183 -47 -272 102 c-257 97 -427 173
-683 309 -60 32 -174 90 -252 130 -128 66 -144 77 -177 124 -20 29 -43 62 -52
74 -11 16 22 1 104 -47 66 -39 131 -70 143 -70 12 0 37 15 54 33 17 17 72 69
123 115 96 87 110 113 76 146 -23 23 -51 19 -77 -10 -12 -15 -61 -59 -108 -99
l-85 -73 -68 39 c-37 21 -88 53 -113 71 -26 17 -86 55 -135 83 -112 65 -150
110 -353 409 l-108 160 79 -44 c43 -23 129 -70 189 -103 209 -114 311 -165
351 -176 52 -14 175 6 611 99 562 119 623 126 838 98 72 -10 198 -25 280 -34
83 -9 222 -27 310 -40 88 -13 273 -40 410 -59 138 -19 296 -42 353 -51 93 -14
106 -14 125 0 12 8 63 43 113 78 97 67 152 107 358 260 116 86 132 95 144 81
6 -9 12 -20 12 -24z m-4382 -6 c60 -25 65 -30 114 -112 52 -86 219 -333 280
-413 18 -24 58 -74 89 -113 30 -38 108 -143 172 -231 80 -111 129 -169 154
-184 51 -30 551 -290 683 -356 58 -28 168 -75 245 -103 77 -29 198 -75 269
-102 72 -28 148 -52 170 -55 30 -4 91 7 231 45 245 65 353 102 550 188 88 39
241 103 340 143 268 109 422 187 666 343 133 85 142 96 224 277 41 91 75 160
75 155 0 -6 -14 -53 -30 -104 -29 -88 -30 -95 -15 -118 9 -13 23 -27 31 -30
30 -11 226 55 437 148 49 22 91 38 93 36 7 -7 -78 -136 -125 -189 -92 -102
-234 -197 -616 -413 -336 -190 -471 -251 -940 -424 -121 -45 -251 -95 -290
-111 -140 -57 -347 -116 -449 -126 -83 -9 -253 11 -416 48 -74 16 -166 36
-203 44 -135 27 -687 296 -842 411 -102 76 -456 424 -561 553 -39 47 -102 130
-140 185 -206 293 -208 298 -264 507 -20 77 -25 109 -17 117 15 15 13 15 85
-16z m-1050 -51 c289 -221 383 -280 625 -398 129 -62 290 -114 354 -114 22 0
38 8 51 25 11 14 22 25 25 25 3 0 19 -21 35 -47 32 -51 92 -136 152 -218 103
-139 404 -451 560 -581 131 -109 194 -147 495 -299 l280 -141 -25 -20 c-90
-73 -355 -207 -519 -264 l-92 -31 -77 21 c-164 45 -587 236 -808 365 -132 77
-304 188 -304 197 0 9 112 78 187 116 33 17 114 49 179 72 66 22 125 48 132
57 21 28 15 70 -14 92 -23 18 -41 21 -129 21 -153 0 -312 36 -404 92 -54 33
-194 172 -268 266 -89 114 -234 317 -281 394 -68 112 -209 398 -196 398 3 0
22 -13 42 -28z m7107 10 c-6 -5 -32 -26 -60 -48 -27 -21 -115 -95 -195 -163
-158 -135 -373 -284 -478 -332 -37 -17 -107 -44 -156 -60 l-89 -30 -29 28
c-16 16 -47 51 -69 79 -38 49 -48 74 -31 74 26 0 427 234 532 310 73 53 103
69 130 70 19 0 116 18 215 39 179 39 248 49 230 33z m-12 -149 c-13 -35 -132
-230 -177 -290 -71 -95 -261 -310 -345 -391 -100 -96 -182 -158 -257 -194 -75
-35 -256 -82 -384 -98 -119 -16 -140 -27 -140 -79 0 -21 6 -43 13 -49 6 -5 67
-28 135 -51 119 -39 200 -72 331 -134 80 -37 98 -22 -229 -195 -429 -226 -468
-246 -636 -317 -60 -26 -150 -64 -201 -86 l-92 -39 -113 51 c-151 68 -247 117
-403 204 -71 40 -166 91 -210 113 -135 68 -136 61 11 117 354 134 778 353
1144 591 140 91 280 230 345 342 26 46 51 80 55 75 4 -4 31 -35 60 -68 85 -96
98 -99 231 -60 213 64 451 214 744 469 66 58 121 105 122 105 1 1 -1 -7 -4
-16z"/>
<path d="M3786 5417 c-14 -10 -21 -37 -30 -118 l-11 -104 -85 -7 c-163 -13
-657 -28 -906 -28 -230 0 -252 -1 -267 -18 -31 -34 -20 -58 56 -131 111 -106
123 -115 597 -418 112 -72 245 -143 266 -143 8 0 26 11 40 25 23 23 25 32 23
108 l-2 82 209 2 c232 3 585 17 859 34 195 13 215 19 215 69 0 36 -26 58 -80
66 -148 21 -204 53 -430 249 -58 50 -154 131 -215 180 -60 49 -112 94 -114 99
-2 6 -17 23 -32 38 -30 30 -65 36 -93 15z m234 -305 c255 -215 310 -260 335
-279 l28 -20 -94 -7 c-160 -11 -808 -26 -849 -20 -34 6 -43 3 -69 -24 -30 -29
-31 -33 -24 -92 l6 -62 -39 20 c-22 11 -69 40 -105 64 -36 24 -104 68 -153 98
-139 87 -289 188 -326 219 l-34 28 285 6 c156 4 405 12 553 19 261 11 270 12
297 36 17 13 29 34 29 47 0 12 3 36 6 54 l6 31 27 -19 c14 -11 69 -55 121 -99z"/>
<path d="M5216 5338 c-24 -34 -20 -51 28 -104 24 -27 82 -93 128 -146 45 -53
138 -155 205 -226 l122 -129 -37 -18 c-145 -70 -363 -156 -440 -175 -65 -15
-91 -46 -74 -86 7 -13 24 -30 39 -37 32 -14 245 -142 348 -209 39 -25 97 -62
129 -83 33 -20 66 -43 73 -51 21 -20 57 -17 79 7 14 15 18 33 16 68 -1 25 0
60 3 77 l6 32 137 6 c376 17 523 36 565 74 38 34 20 62 -143 217 -367 348
-653 564 -950 715 -58 29 -116 61 -129 72 -33 26 -86 24 -105 -4z m389 -292
c175 -113 419 -306 619 -492 139 -129 148 -138 125 -146 -13 -4 -154 -14 -313
-21 -327 -15 -316 -11 -316 -99 0 -26 -3 -48 -6 -48 -4 0 -37 19 -73 43 -36
24 -112 72 -169 107 -120 75 -129 58 83 146 152 63 279 134 296 166 14 27 4
62 -23 80 -27 18 -294 298 -284 298 4 0 31 -15 61 -34z"/>
<path d="M1815 5026 c-165 -67 -316 -129 -337 -138 -44 -20 -54 -50 -98 -286
-16 -87 -41 -215 -54 -287 -13 -71 -30 -183 -37 -247 -11 -106 -10 -119 5
-143 14 -21 24 -26 53 -23 33 3 39 8 70 68 94 180 272 458 406 635 33 44 117
148 187 230 173 206 190 229 190 257 0 31 -29 58 -61 57 -13 -1 -159 -56 -324
-123z m66 -156 c-90 -105 -221 -278 -308 -410 -38 -58 -84 -127 -102 -155
l-33 -50 6 35 c56 296 87 457 92 472 3 10 20 26 37 35 24 13 360 149 375 152
1 1 -29 -35 -67 -79z"/>
</g>
</svg>
